<svg xmlns="http://www.w3.org/2000/svg" viewBox="0 0 960 520" role="img" aria-labelledby="title desc">
<title id="title">Final full-task success rates</title>
<desc id="desc">A0 observed zero successes at every checkpoint. A1 observed 2 of 20 at 10k and 3 of 20 at 14k. Wilson intervals are wide.</desc>
<rect width="960" height="520" rx="18" fill="#0b1220"/>
<text x="92.0" y="42.0" text-anchor="start" font-family="Inter,Arial,sans-serif" font-size="22" font-weight="500" fill="#e5e7eb">Final full-task success (20 episodes per checkpoint)</text>
<text x="92.0" y="68.0" text-anchor="start" font-family="Inter,Arial,sans-serif" font-size="13" font-weight="400" fill="#9ca3af">Bars: observed rate · whiskers: Wilson 95% interval · native horizon</text>
<line x1="92" y1="422.0" x2="900" y2="422.0" stroke="#334155" stroke-width="1"/>
<text x="78.0" y="427.0" text-anchor="end" font-family="Inter,Arial,sans-serif" font-size="12" font-weight="400" fill="#9ca3af">0%</text>
<line x1="92" y1="339.5" x2="900" y2="339.5" stroke="#334155" stroke-width="1"/>
<text x="78.0" y="344.5" text-anchor="end" font-family="Inter,Arial,sans-serif" font-size="12" font-weight="400" fill="#9ca3af">10%</text>
<line x1="92" y1="257.0" x2="900" y2="257.0" stroke="#334155" stroke-width="1"/>
<text x="78.0" y="262.0" text-anchor="end" font-family="Inter,Arial,sans-serif" font-size="12" font-weight="400" fill="#9ca3af">20%</text>
<line x1="92" y1="174.5" x2="900" y2="174.5" stroke="#334155" stroke-width="1"/>
<text x="78.0" y="179.5" text-anchor="end" font-family="Inter,Arial,sans-serif" font-size="12" font-weight="400" fill="#9ca3af">30%</text>
<line x1="92" y1="92.0" x2="900" y2="92.0" stroke="#334155" stroke-width="1"/>
<text x="78.0" y="97.0" text-anchor="end" font-family="Inter,Arial,sans-serif" font-size="12" font-weight="400" fill="#9ca3af">40%</text>
<rect x="141.0" y="420.0" width="44" height="2.0" rx="5" fill="#f59e0b"/>
<line x1="163.0" y1="289.2" x2="163.0" y2="422.0" stroke="#f8fafc" stroke-width="2"/>
<line x1="155.0" y1="289.2" x2="171.0" y2="289.2" stroke="#f8fafc" stroke-width="2"/>
<line x1="155.0" y1="422.0" x2="171.0" y2="422.0" stroke="#f8fafc" stroke-width="2"/>
<text x="163.0" y="412.0" text-anchor="middle" font-family="Inter,Arial,sans-serif" font-size="13" font-weight="500" fill="#e5e7eb">0/20</text>
<rect x="201.0" y="420.0" width="44" height="2.0" rx="5" fill="#38bdf8"/>
<line x1="223.0" y1="289.2" x2="223.0" y2="422.0" stroke="#f8fafc" stroke-width="2"/>
<line x1="215.0" y1="289.2" x2="231.0" y2="289.2" stroke="#f8fafc" stroke-width="2"/>
<line x1="215.0" y1="422.0" x2="231.0" y2="422.0" stroke="#f8fafc" stroke-width="2"/>
<text x="223.0" y="412.0" text-anchor="middle" font-family="Inter,Arial,sans-serif" font-size="13" font-weight="500" fill="#e5e7eb">0/20</text>
<text x="193.0" y="452.0" text-anchor="middle" font-family="Inter,Arial,sans-serif" font-size="13" font-weight="400" fill="#e5e7eb">21k / 7k</text>
<rect x="343.0" y="420.0" width="44" height="2.0" rx="5" fill="#f59e0b"/>
<line x1="365.0" y1="289.2" x2="365.0" y2="422.0" stroke="#f8fafc" stroke-width="2"/>
<line x1="357.0" y1="289.2" x2="373.0" y2="289.2" stroke="#f8fafc" stroke-width="2"/>
<line x1="357.0" y1="422.0" x2="373.0" y2="422.0" stroke="#f8fafc" stroke-width="2"/>
<text x="365.0" y="412.0" text-anchor="middle" font-family="Inter,Arial,sans-serif" font-size="13" font-weight="500" fill="#e5e7eb">0/20</text>
<rect x="403.0" y="339.5" width="44" height="82.5" rx="5" fill="#38bdf8"/>
<line x1="425.0" y1="173.7" x2="425.0" y2="398.9" stroke="#f8fafc" stroke-width="2"/>
<line x1="417.0" y1="173.7" x2="433.0" y2="173.7" stroke="#f8fafc" stroke-width="2"/>
<line x1="417.0" y1="398.9" x2="433.0" y2="398.9" stroke="#f8fafc" stroke-width="2"/>
<text x="425.0" y="329.5" text-anchor="middle" font-family="Inter,Arial,sans-serif" font-size="13" font-weight="500" fill="#e5e7eb">2/20</text>
<text x="395.0" y="452.0" text-anchor="middle" font-family="Inter,Arial,sans-serif" font-size="13" font-weight="400" fill="#e5e7eb">30k / 10k</text>
<rect x="545.0" y="420.0" width="44" height="2.0" rx="5" fill="#f59e0b"/>
<line x1="567.0" y1="289.2" x2="567.0" y2="422.0" stroke="#f8fafc" stroke-width="2"/>
<line x1="559.0" y1="289.2" x2="575.0" y2="289.2" stroke="#f8fafc" stroke-width="2"/>
<line x1="559.0" y1="422.0" x2="575.0" y2="422.0" stroke="#f8fafc" stroke-width="2"/>
<text x="567.0" y="412.0" text-anchor="middle" font-family="Inter,Arial,sans-serif" font-size="13" font-weight="500" fill="#e5e7eb">0/20</text>
<rect x="605.0" y="420.0" width="44" height="2.0" rx="5" fill="#38bdf8"/>
<line x1="627.0" y1="289.2" x2="627.0" y2="422.0" stroke="#f8fafc" stroke-width="2"/>
<line x1="619.0" y1="289.2" x2="635.0" y2="289.2" stroke="#f8fafc" stroke-width="2"/>
<line x1="619.0" y1="422.0" x2="635.0" y2="422.0" stroke="#f8fafc" stroke-width="2"/>
<text x="627.0" y="412.0" text-anchor="middle" font-family="Inter,Arial,sans-serif" font-size="13" font-weight="500" fill="#e5e7eb">0/20</text>
<text x="597.0" y="452.0" text-anchor="middle" font-family="Inter,Arial,sans-serif" font-size="13" font-weight="400" fill="#e5e7eb">36k / 12k</text>
<rect x="747.0" y="420.0" width="44" height="2.0" rx="5" fill="#f59e0b"/>
<line x1="769.0" y1="289.2" x2="769.0" y2="422.0" stroke="#f8fafc" stroke-width="2"/>
<line x1="761.0" y1="289.2" x2="777.0" y2="289.2" stroke="#f8fafc" stroke-width="2"/>
<line x1="761.0" y1="422.0" x2="777.0" y2="422.0" stroke="#f8fafc" stroke-width="2"/>
<text x="769.0" y="412.0" text-anchor="middle" font-family="Inter,Arial,sans-serif" font-size="13" font-weight="500" fill="#e5e7eb">0/20</text>
<rect x="807.0" y="298.2" width="44" height="123.8" rx="5" fill="#38bdf8"/>
<line x1="829.0" y1="125.0" x2="829.0" y2="379.1" stroke="#f8fafc" stroke-width="2"/>
<line x1="821.0" y1="125.0" x2="837.0" y2="125.0" stroke="#f8fafc" stroke-width="2"/>
<line x1="821.0" y1="379.1" x2="837.0" y2="379.1" stroke="#f8fafc" stroke-width="2"/>
<text x="829.0" y="288.2" text-anchor="middle" font-family="Inter,Arial,sans-serif" font-size="13" font-weight="500" fill="#e5e7eb">3/20</text>
<text x="799.0" y="452.0" text-anchor="middle" font-family="Inter,Arial,sans-serif" font-size="13" font-weight="400" fill="#e5e7eb">42k / 14k</text>
<text x="496.0" y="478.0" text-anchor="middle" font-family="Inter,Arial,sans-serif" font-size="13" font-weight="400" fill="#9ca3af">A0 checkpoint / A1 per-primitive checkpoint</text>
<rect x="652" y="44" width="14" height="14" rx="3" fill="#f59e0b"/>
<text x="674.0" y="56.0" text-anchor="start" font-family="Inter,Arial,sans-serif" font-size="13" font-weight="400" fill="#e5e7eb">A0 monolithic</text>
<rect x="782" y="44" width="14" height="14" rx="3" fill="#38bdf8"/>
<text x="804.0" y="56.0" text-anchor="start" font-family="Inter,Arial,sans-serif" font-size="13" font-weight="400" fill="#e5e7eb">A1 3-policy</text>
</svg>
