<svg xmlns="http://www.w3.org/2000/svg" viewBox="0 0 960 520" role="img" aria-labelledby="title desc">
<title id="title">Final full-task success rates</title>
<desc id="desc">A0 observed zero successes at every checkpoint. A1 observed 2 of 20 at 10k and 3 of 20 at 14k. Wilson intervals are wide.</desc>
<rect width="960" height="520" rx="18" fill="#0b1220"/>
<text x="92.0" y="42.0" text-anchor="start" font-family="Inter,Arial,sans-serif" font-size="22" font-weight="500" fill="#e5e7eb">G4 full-task success (20 episodes per checkpoint)</text>
<text x="92.0" y="68.0" text-anchor="start" font-family="Inter,Arial,sans-serif" font-size="13" font-weight="400" fill="#9ca3af">Primary G4 benchmark · Wilson 95% intervals · native horizon</text>
<line x1="92" y1="422.0" x2="900" y2="422.0" stroke="#334155" stroke-width="1"/>
<text x="78.0" y="427.0" text-anchor="end" font-family="Inter,Arial,sans-serif" font-size="12" font-weight="400" fill="#9ca3af">0%</text>
<line x1="92" y1="339.5" x2="900" y2="339.5" stroke="#334155" stroke-width="1"/>
<text x="78.0" y="344.5" text-anchor="end" font-family="Inter,Arial,sans-serif" font-size="12" font-weight="400" fill="#9ca3af">10%</text>
<line x1="92" y1="257.0" x2="900" y2="257.0" stroke="#334155" stroke-width="1"/>
<text x="78.0" y="262.0" text-anchor="end" font-family="Inter,Arial,sans-serif" font-size="12" font-weight="400" fill="#9ca3af">20%</text>
<line x1="92" y1="174.5" x2="900" y2="174.5" stroke="#334155" stroke-width="1"/>
<text x="78.0" y="179.5" text-anchor="end" font-family="Inter,Arial,sans-serif" font-size="12" font-weight="400" fill="#9ca3af">30%</text>
<line x1="92" y1="92.0" x2="900" y2="92.0" stroke="#334155" stroke-width="1"/>
<text x="78.0" y="97.0" text-anchor="end" font-family="Inter,Arial,sans-serif" font-size="12" font-weight="400" fill="#9ca3af">40%</text>
<rect x="174.7" y="420.0" width="44" height="2.0" rx="5" fill="#f59e0b"/>
<line x1="196.66666666666666" y1="289.2" x2="196.66666666666666" y2="422.0" stroke="#f8fafc" stroke-width="2"/>
<line x1="188.66666666666666" y1="289.2" x2="204.66666666666666" y2="289.2" stroke="#f8fafc" stroke-width="2"/>
<line x1="188.66666666666666" y1="422.0" x2="204.66666666666666" y2="422.0" stroke="#f8fafc" stroke-width="2"/>
<text x="196.7" y="412.0" text-anchor="middle" font-family="Inter,Arial,sans-serif" font-size="13" font-weight="500" fill="#e5e7eb">0/20</text>
<rect x="234.7" y="339.5" width="44" height="82.5" rx="5" fill="#38bdf8"/>
<line x1="256.66666666666663" y1="173.7" x2="256.66666666666663" y2="398.9" stroke="#f8fafc" stroke-width="2"/>
<line x1="248.66666666666663" y1="173.7" x2="264.66666666666663" y2="173.7" stroke="#f8fafc" stroke-width="2"/>
<line x1="248.66666666666663" y1="398.9" x2="264.66666666666663" y2="398.9" stroke="#f8fafc" stroke-width="2"/>
<text x="256.7" y="329.5" text-anchor="middle" font-family="Inter,Arial,sans-serif" font-size="13" font-weight="500" fill="#e5e7eb">2/20</text>
<text x="226.7" y="452.0" text-anchor="middle" font-family="Inter,Arial,sans-serif" font-size="13" font-weight="400" fill="#e5e7eb">30k / 10k</text>
<rect x="444.0" y="420.0" width="44" height="2.0" rx="5" fill="#f59e0b"/>
<line x1="466.0" y1="289.2" x2="466.0" y2="422.0" stroke="#f8fafc" stroke-width="2"/>
<line x1="458.0" y1="289.2" x2="474.0" y2="289.2" stroke="#f8fafc" stroke-width="2"/>
<line x1="458.0" y1="422.0" x2="474.0" y2="422.0" stroke="#f8fafc" stroke-width="2"/>
<text x="466.0" y="412.0" text-anchor="middle" font-family="Inter,Arial,sans-serif" font-size="13" font-weight="500" fill="#e5e7eb">0/20</text>
<rect x="504.0" y="420.0" width="44" height="2.0" rx="5" fill="#38bdf8"/>
<line x1="526.0" y1="289.2" x2="526.0" y2="422.0" stroke="#f8fafc" stroke-width="2"/>
<line x1="518.0" y1="289.2" x2="534.0" y2="289.2" stroke="#f8fafc" stroke-width="2"/>
<line x1="518.0" y1="422.0" x2="534.0" y2="422.0" stroke="#f8fafc" stroke-width="2"/>
<text x="526.0" y="412.0" text-anchor="middle" font-family="Inter,Arial,sans-serif" font-size="13" font-weight="500" fill="#e5e7eb">0/20</text>
<text x="496.0" y="452.0" text-anchor="middle" font-family="Inter,Arial,sans-serif" font-size="13" font-weight="400" fill="#e5e7eb">36k / 12k</text>
<rect x="713.3" y="420.0" width="44" height="2.0" rx="5" fill="#f59e0b"/>
<line x1="735.3333333333333" y1="289.2" x2="735.3333333333333" y2="422.0" stroke="#f8fafc" stroke-width="2"/>
<line x1="727.3333333333333" y1="289.2" x2="743.3333333333333" y2="289.2" stroke="#f8fafc" stroke-width="2"/>
<line x1="727.3333333333333" y1="422.0" x2="743.3333333333333" y2="422.0" stroke="#f8fafc" stroke-width="2"/>
<text x="735.3" y="412.0" text-anchor="middle" font-family="Inter,Arial,sans-serif" font-size="13" font-weight="500" fill="#e5e7eb">0/20</text>
<rect x="773.3" y="298.2" width="44" height="123.8" rx="5" fill="#38bdf8"/>
<line x1="795.3333333333333" y1="125.0" x2="795.3333333333333" y2="379.1" stroke="#f8fafc" stroke-width="2"/>
<line x1="787.3333333333333" y1="125.0" x2="803.3333333333333" y2="125.0" stroke="#f8fafc" stroke-width="2"/>
<line x1="787.3333333333333" y1="379.1" x2="803.3333333333333" y2="379.1" stroke="#f8fafc" stroke-width="2"/>
<text x="795.3" y="288.2" text-anchor="middle" font-family="Inter,Arial,sans-serif" font-size="13" font-weight="500" fill="#e5e7eb">3/20</text>
<text x="765.3" y="452.0" text-anchor="middle" font-family="Inter,Arial,sans-serif" font-size="13" font-weight="400" fill="#e5e7eb">42k / 14k</text>
<text x="496.0" y="478.0" text-anchor="middle" font-family="Inter,Arial,sans-serif" font-size="13" font-weight="400" fill="#9ca3af">A0 checkpoint / A1 per-primitive checkpoint</text>
<rect x="652" y="44" width="14" height="14" rx="3" fill="#f59e0b"/>
<text x="674.0" y="56.0" text-anchor="start" font-family="Inter,Arial,sans-serif" font-size="13" font-weight="400" fill="#e5e7eb">A0 monolithic</text>
<rect x="782" y="44" width="14" height="14" rx="3" fill="#38bdf8"/>
<text x="804.0" y="56.0" text-anchor="start" font-family="Inter,Arial,sans-serif" font-size="13" font-weight="400" fill="#e5e7eb">A1 3-policy</text>
</svg>
